<mxfile host="app.diagrams.net" agent="Mozilla/5.0 (Macintosh; Intel Mac OS X 10_15_7) AppleWebKit/537.36 (KHTML, like Gecko) Chrome/128.0.0.0 Safari/537.36" version="24.7.13">
  <diagram name="Page-1" id="-H_mtQnk-PTXWXPvYvuk">
    <mxGraphModel dx="1242" dy="819" grid="1" gridSize="10" guides="1" tooltips="1" connect="1" arrows="1" fold="1" page="1" pageScale="1" pageWidth="1169" pageHeight="827" math="0" shadow="0">
      <root>
        <mxCell id="0" />
        <mxCell id="1" parent="0" />
        <mxCell id="9rIZPSZPmVjsdQkvPOGj-21" value="" style="edgeStyle=orthogonalEdgeStyle;rounded=0;orthogonalLoop=1;jettySize=auto;html=1;entryX=0;entryY=0.5;entryDx=0;entryDy=0;entryPerimeter=0;" parent="1" source="9rIZPSZPmVjsdQkvPOGj-24" target="9rIZPSZPmVjsdQkvPOGj-32" edge="1">
          <mxGeometry relative="1" as="geometry" />
        </mxCell>
        <mxCell id="9rIZPSZPmVjsdQkvPOGj-22" value="" style="edgeStyle=orthogonalEdgeStyle;rounded=0;orthogonalLoop=1;jettySize=auto;html=1;entryX=0;entryY=0.5;entryDx=0;entryDy=0;entryPerimeter=0;" parent="1" source="9rIZPSZPmVjsdQkvPOGj-24" target="9rIZPSZPmVjsdQkvPOGj-27" edge="1">
          <mxGeometry relative="1" as="geometry" />
        </mxCell>
        <mxCell id="9rIZPSZPmVjsdQkvPOGj-23" value="" style="edgeStyle=orthogonalEdgeStyle;rounded=0;orthogonalLoop=1;jettySize=auto;html=1;entryX=0;entryY=0.5;entryDx=0;entryDy=0;entryPerimeter=0;" parent="1" source="9rIZPSZPmVjsdQkvPOGj-24" target="9rIZPSZPmVjsdQkvPOGj-28" edge="1">
          <mxGeometry relative="1" as="geometry" />
        </mxCell>
        <mxCell id="9rIZPSZPmVjsdQkvPOGj-24" value="mongos_router" style="shape=cylinder3;whiteSpace=wrap;html=1;boundedLbl=1;backgroundOutline=1;size=15;" parent="1" vertex="1">
          <mxGeometry x="705" y="320" width="100" height="80" as="geometry" />
        </mxCell>
        <mxCell id="9rIZPSZPmVjsdQkvPOGj-25" value="pymongo-api-3" style="rounded=1;whiteSpace=wrap;html=1;" parent="1" vertex="1">
          <mxGeometry x="480" y="380" width="120" height="60" as="geometry" />
        </mxCell>
        <mxCell id="9rIZPSZPmVjsdQkvPOGj-26" style="edgeStyle=orthogonalEdgeStyle;rounded=0;orthogonalLoop=1;jettySize=auto;html=1;exitX=1;exitY=0.5;exitDx=0;exitDy=0;entryX=0;entryY=0.5;entryDx=0;entryDy=0;entryPerimeter=0;" parent="1" source="9rIZPSZPmVjsdQkvPOGj-25" target="9rIZPSZPmVjsdQkvPOGj-24" edge="1">
          <mxGeometry relative="1" as="geometry" />
        </mxCell>
        <mxCell id="9rIZPSZPmVjsdQkvPOGj-27" value="shard1-a" style="shape=cylinder3;whiteSpace=wrap;html=1;boundedLbl=1;backgroundOutline=1;size=15;" parent="1" vertex="1">
          <mxGeometry x="920" y="250" width="100" height="80" as="geometry" />
        </mxCell>
        <mxCell id="9rIZPSZPmVjsdQkvPOGj-28" value="shard2-a" style="shape=cylinder3;whiteSpace=wrap;html=1;boundedLbl=1;backgroundOutline=1;size=15;" parent="1" vertex="1">
          <mxGeometry x="920" y="360" width="100" height="80" as="geometry" />
        </mxCell>
        <mxCell id="9rIZPSZPmVjsdQkvPOGj-29" value="configSrv" style="shape=cylinder3;whiteSpace=wrap;html=1;boundedLbl=1;backgroundOutline=1;size=15;" parent="1" vertex="1">
          <mxGeometry x="1080" y="320" width="100" height="80" as="geometry" />
        </mxCell>
        <mxCell id="9rIZPSZPmVjsdQkvPOGj-30" style="edgeStyle=orthogonalEdgeStyle;rounded=0;orthogonalLoop=1;jettySize=auto;html=1;entryX=1;entryY=0.5;entryDx=0;entryDy=0;entryPerimeter=0;" parent="1" source="9rIZPSZPmVjsdQkvPOGj-29" target="9rIZPSZPmVjsdQkvPOGj-27" edge="1">
          <mxGeometry relative="1" as="geometry" />
        </mxCell>
        <mxCell id="9rIZPSZPmVjsdQkvPOGj-31" style="edgeStyle=orthogonalEdgeStyle;rounded=0;orthogonalLoop=1;jettySize=auto;html=1;entryX=1;entryY=0;entryDx=0;entryDy=52.5;entryPerimeter=0;" parent="1" source="9rIZPSZPmVjsdQkvPOGj-29" target="9rIZPSZPmVjsdQkvPOGj-28" edge="1">
          <mxGeometry relative="1" as="geometry" />
        </mxCell>
        <mxCell id="9rIZPSZPmVjsdQkvPOGj-32" value="shard1-b" style="shape=cylinder3;whiteSpace=wrap;html=1;boundedLbl=1;backgroundOutline=1;size=15;" parent="1" vertex="1">
          <mxGeometry x="920" y="170" width="100" height="80" as="geometry" />
        </mxCell>
        <mxCell id="9rIZPSZPmVjsdQkvPOGj-33" value="shard1-c" style="shape=cylinder3;whiteSpace=wrap;html=1;boundedLbl=1;backgroundOutline=1;size=15;" parent="1" vertex="1">
          <mxGeometry x="920" y="90" width="100" height="80" as="geometry" />
        </mxCell>
        <mxCell id="9rIZPSZPmVjsdQkvPOGj-34" value="shard2-b" style="shape=cylinder3;whiteSpace=wrap;html=1;boundedLbl=1;backgroundOutline=1;size=15;" parent="1" vertex="1">
          <mxGeometry x="920" y="440" width="100" height="80" as="geometry" />
        </mxCell>
        <mxCell id="9rIZPSZPmVjsdQkvPOGj-35" value="shard2-c" style="shape=cylinder3;whiteSpace=wrap;html=1;boundedLbl=1;backgroundOutline=1;size=15;" parent="1" vertex="1">
          <mxGeometry x="920" y="520" width="100" height="80" as="geometry" />
        </mxCell>
        <mxCell id="9rIZPSZPmVjsdQkvPOGj-36" style="edgeStyle=orthogonalEdgeStyle;rounded=0;orthogonalLoop=1;jettySize=auto;html=1;entryX=0;entryY=0;entryDx=0;entryDy=52.5;entryPerimeter=0;" parent="1" source="9rIZPSZPmVjsdQkvPOGj-24" target="9rIZPSZPmVjsdQkvPOGj-33" edge="1">
          <mxGeometry relative="1" as="geometry" />
        </mxCell>
        <mxCell id="9rIZPSZPmVjsdQkvPOGj-37" style="edgeStyle=orthogonalEdgeStyle;rounded=0;orthogonalLoop=1;jettySize=auto;html=1;entryX=0;entryY=0.5;entryDx=0;entryDy=0;entryPerimeter=0;" parent="1" source="9rIZPSZPmVjsdQkvPOGj-24" target="9rIZPSZPmVjsdQkvPOGj-34" edge="1">
          <mxGeometry relative="1" as="geometry" />
        </mxCell>
        <mxCell id="9rIZPSZPmVjsdQkvPOGj-38" style="edgeStyle=orthogonalEdgeStyle;rounded=0;orthogonalLoop=1;jettySize=auto;html=1;entryX=0;entryY=0.5;entryDx=0;entryDy=0;entryPerimeter=0;" parent="1" source="9rIZPSZPmVjsdQkvPOGj-24" target="9rIZPSZPmVjsdQkvPOGj-35" edge="1">
          <mxGeometry relative="1" as="geometry" />
        </mxCell>
        <mxCell id="9rIZPSZPmVjsdQkvPOGj-39" value="redis-1" style="shape=cylinder3;whiteSpace=wrap;html=1;boundedLbl=1;backgroundOutline=1;size=15;" parent="1" vertex="1">
          <mxGeometry x="700" y="210" width="100" height="80" as="geometry" />
        </mxCell>
        <mxCell id="9rIZPSZPmVjsdQkvPOGj-40" style="edgeStyle=orthogonalEdgeStyle;rounded=0;orthogonalLoop=1;jettySize=auto;html=1;entryX=0;entryY=0.5;entryDx=0;entryDy=0;entryPerimeter=0;" parent="1" source="9rIZPSZPmVjsdQkvPOGj-25" target="9rIZPSZPmVjsdQkvPOGj-39" edge="1">
          <mxGeometry relative="1" as="geometry" />
        </mxCell>
        <mxCell id="pl8xgwRFLOpiITGCZ7NF-3" style="edgeStyle=orthogonalEdgeStyle;rounded=0;orthogonalLoop=1;jettySize=auto;html=1;" parent="1" source="pl8xgwRFLOpiITGCZ7NF-1" edge="1">
          <mxGeometry relative="1" as="geometry">
            <mxPoint x="700" y="360" as="targetPoint" />
          </mxGeometry>
        </mxCell>
        <mxCell id="pl8xgwRFLOpiITGCZ7NF-1" value="pymongo-api-2" style="rounded=1;whiteSpace=wrap;html=1;" parent="1" vertex="1">
          <mxGeometry x="480" y="300" width="120" height="60" as="geometry" />
        </mxCell>
        <mxCell id="pl8xgwRFLOpiITGCZ7NF-2" value="pymongo-api-1" style="rounded=1;whiteSpace=wrap;html=1;" parent="1" vertex="1">
          <mxGeometry x="480" y="220" width="120" height="60" as="geometry" />
        </mxCell>
        <mxCell id="pl8xgwRFLOpiITGCZ7NF-4" style="edgeStyle=orthogonalEdgeStyle;rounded=0;orthogonalLoop=1;jettySize=auto;html=1;entryX=0;entryY=0.5;entryDx=0;entryDy=0;entryPerimeter=0;" parent="1" source="pl8xgwRFLOpiITGCZ7NF-1" target="9rIZPSZPmVjsdQkvPOGj-39" edge="1">
          <mxGeometry relative="1" as="geometry" />
        </mxCell>
        <mxCell id="pl8xgwRFLOpiITGCZ7NF-5" style="edgeStyle=orthogonalEdgeStyle;rounded=0;orthogonalLoop=1;jettySize=auto;html=1;entryX=0;entryY=0.5;entryDx=0;entryDy=0;entryPerimeter=0;" parent="1" source="pl8xgwRFLOpiITGCZ7NF-2" target="9rIZPSZPmVjsdQkvPOGj-39" edge="1">
          <mxGeometry relative="1" as="geometry" />
        </mxCell>
        <mxCell id="pl8xgwRFLOpiITGCZ7NF-6" style="edgeStyle=orthogonalEdgeStyle;rounded=0;orthogonalLoop=1;jettySize=auto;html=1;entryX=0;entryY=0.5;entryDx=0;entryDy=0;entryPerimeter=0;" parent="1" source="pl8xgwRFLOpiITGCZ7NF-2" target="9rIZPSZPmVjsdQkvPOGj-24" edge="1">
          <mxGeometry relative="1" as="geometry" />
        </mxCell>
        <mxCell id="pl8xgwRFLOpiITGCZ7NF-8" style="edgeStyle=orthogonalEdgeStyle;rounded=0;orthogonalLoop=1;jettySize=auto;html=1;entryX=0;entryY=0.5;entryDx=0;entryDy=0;" parent="1" source="pl8xgwRFLOpiITGCZ7NF-7" target="pl8xgwRFLOpiITGCZ7NF-2" edge="1">
          <mxGeometry relative="1" as="geometry" />
        </mxCell>
        <mxCell id="pl8xgwRFLOpiITGCZ7NF-9" style="edgeStyle=orthogonalEdgeStyle;rounded=0;orthogonalLoop=1;jettySize=auto;html=1;entryX=0;entryY=0.5;entryDx=0;entryDy=0;" parent="1" source="pl8xgwRFLOpiITGCZ7NF-7" target="pl8xgwRFLOpiITGCZ7NF-1" edge="1">
          <mxGeometry relative="1" as="geometry" />
        </mxCell>
        <mxCell id="pl8xgwRFLOpiITGCZ7NF-10" style="edgeStyle=orthogonalEdgeStyle;rounded=0;orthogonalLoop=1;jettySize=auto;html=1;entryX=0;entryY=0.75;entryDx=0;entryDy=0;" parent="1" source="pl8xgwRFLOpiITGCZ7NF-7" target="9rIZPSZPmVjsdQkvPOGj-25" edge="1">
          <mxGeometry relative="1" as="geometry" />
        </mxCell>
        <mxCell id="pl8xgwRFLOpiITGCZ7NF-7" value="api-gateway" style="rounded=1;whiteSpace=wrap;html=1;" parent="1" vertex="1">
          <mxGeometry x="270" y="300" width="120" height="60" as="geometry" />
        </mxCell>
        <mxCell id="pl8xgwRFLOpiITGCZ7NF-12" style="edgeStyle=orthogonalEdgeStyle;rounded=0;orthogonalLoop=1;jettySize=auto;html=1;" parent="1" source="pl8xgwRFLOpiITGCZ7NF-11" target="pl8xgwRFLOpiITGCZ7NF-7" edge="1">
          <mxGeometry relative="1" as="geometry" />
        </mxCell>
        <mxCell id="pl8xgwRFLOpiITGCZ7NF-11" value="consul" style="rounded=1;whiteSpace=wrap;html=1;" parent="1" vertex="1">
          <mxGeometry x="270" y="190" width="120" height="60" as="geometry" />
        </mxCell>
        <mxCell id="CaLv9WIYrAD0kfyq_Tqi-4" style="edgeStyle=orthogonalEdgeStyle;rounded=0;orthogonalLoop=1;jettySize=auto;html=1;entryX=0;entryY=0.5;entryDx=0;entryDy=0;" edge="1" parent="1" source="CaLv9WIYrAD0kfyq_Tqi-1" target="CaLv9WIYrAD0kfyq_Tqi-3">
          <mxGeometry relative="1" as="geometry" />
        </mxCell>
        <mxCell id="CaLv9WIYrAD0kfyq_Tqi-5" value="static content" style="edgeLabel;html=1;align=center;verticalAlign=middle;resizable=0;points=[];" vertex="1" connectable="0" parent="CaLv9WIYrAD0kfyq_Tqi-4">
          <mxGeometry x="0.7385" y="1" relative="1" as="geometry">
            <mxPoint x="-23" y="1" as="offset" />
          </mxGeometry>
        </mxCell>
        <mxCell id="CaLv9WIYrAD0kfyq_Tqi-1" value="" style="shape=umlActor;verticalLabelPosition=bottom;verticalAlign=top;html=1;outlineConnect=0;" vertex="1" parent="1">
          <mxGeometry x="50" y="340" width="30" height="60" as="geometry" />
        </mxCell>
        <mxCell id="CaLv9WIYrAD0kfyq_Tqi-2" style="edgeStyle=orthogonalEdgeStyle;rounded=0;orthogonalLoop=1;jettySize=auto;html=1;entryX=-0.033;entryY=0.383;entryDx=0;entryDy=0;entryPerimeter=0;" edge="1" parent="1" source="CaLv9WIYrAD0kfyq_Tqi-1" target="pl8xgwRFLOpiITGCZ7NF-7">
          <mxGeometry relative="1" as="geometry" />
        </mxCell>
        <mxCell id="CaLv9WIYrAD0kfyq_Tqi-3" value="(geo&lt;span style=&quot;background-color: initial;&quot;&gt;)CDN&lt;/span&gt;" style="rounded=1;whiteSpace=wrap;html=1;" vertex="1" parent="1">
          <mxGeometry x="270" y="430" width="120" height="60" as="geometry" />
        </mxCell>
      </root>
    </mxGraphModel>
  </diagram>
</mxfile>
